<?xml version="1.0" encoding="UTF-8"?>
<svg width="752pt" height="752pt" version="1.1" viewBox="0 0 752 752" xmlns="http://www.w3.org/2000/svg">
 <path d="m563.36 230.78h-374.71c-20.078 0-36.41 16.336-36.41 36.41v217.62c0 20.078 16.336 36.41 36.41 36.41h374.71c20.078 0 36.41-16.336 36.41-36.41l0.003906-217.61c0-20.078-16.336-36.414-36.414-36.414zm-7.8203 21.312-179.54 126.33-179.53-126.33zm-381.8 235.13c-0.125-0.78906-0.19141-1.5938-0.19141-2.4141v-217.61c0-1.625 0.25781-3.1875 0.73438-4.6562l131.65 92.637zm17.449 12.688 132.43-132.29 46.246 32.543c1.8438 1.293 3.9883 1.9414 6.1328 1.9414s4.293-0.64844 6.1328-1.9414l46.246-32.543 132.43 132.29zm387.27-15.102c0 0.82031-0.066406 1.625-0.19531 2.4102l-132.19-132.04 131.65-92.637c0.48047 1.4648 0.73828 3.0312 0.73828 4.6562z" fill="#676767"/>
</svg>
