<?xml version="1.0" encoding="UTF-8"?>
<svg width="752pt" height="752pt" version="1.1" viewBox="0 0 752 752" xmlns="http://www.w3.org/2000/svg">
 <path d="m257.61 361.2c-15.699 0-30.758-6.2383-41.859-17.34-11.102-11.102-17.336-26.16-17.336-41.859 0-15.699 6.2344-30.758 17.336-41.859 11.102-11.102 26.16-17.336 41.859-17.336s30.758 6.2344 41.859 17.336c11.102 11.102 17.34 26.16 17.34 41.859 0 15.699-6.2383 30.758-17.34 41.859-11.102 11.102-26.16 17.34-41.859 17.34zm0-88.797c-7.8477 0-15.379 3.1172-20.93 8.668s-8.668 13.082-8.668 20.93c0 7.8516 3.1172 15.379 8.668 20.93 5.5508 5.5508 13.082 8.668 20.93 8.668 7.8516 0 15.379-3.1172 20.93-8.668 5.5508-5.5508 8.668-13.078 8.668-20.93 0-7.8477-3.1172-15.379-8.668-20.93-5.5508-5.5508-13.078-8.668-20.93-8.668zm88.797 251.59h-177.59c-3.9258 0-7.6875-1.5586-10.465-4.3359-2.7734-2.7734-4.332-6.5391-4.332-10.465v-59.195c0-19.625 7.793-38.449 21.672-52.324 13.879-13.879 32.699-21.676 52.324-21.676h59.199-0.003906c19.629 0 38.449 7.7969 52.324 21.676 13.879 13.875 21.676 32.699 21.676 52.324v59.199-0.003907c0 3.9258-1.5586 7.6914-4.3359 10.465-2.7734 2.7773-6.5391 4.3359-10.465 4.3359zm-162.79-29.598h147.99v-44.398c0-11.777-4.6758-23.07-13.004-31.395-8.3242-8.3281-19.617-13.004-31.395-13.004h-59.195c-11.777 0-23.07 4.6758-31.395 13.004-8.3281 8.3242-13.004 19.617-13.004 31.395zm414.38-148c0-3.9258-1.5586-7.6875-4.3359-10.465-2.7734-2.7734-6.5391-4.3359-10.465-4.3359h-177.59c-5.2891 0-10.176 2.8242-12.816 7.4023-2.6445 4.5781-2.6445 10.219 0 14.797 2.6406 4.582 7.5273 7.4023 12.816 7.4023h177.59c3.9258 0 7.6914-1.5586 10.465-4.3359 2.7773-2.7734 4.3359-6.5391 4.3359-10.465zm0 59.199c0-3.9258-1.5586-7.6914-4.3359-10.465-2.7734-2.7773-6.5391-4.3359-10.465-4.3359h-177.59c-5.2891 0-10.176 2.8203-12.816 7.3984-2.6445 4.582-2.6445 10.223 0 14.801 2.6406 4.5781 7.5273 7.3984 12.816 7.3984h177.59c3.9258 0 7.6914-1.5586 10.465-4.332 2.7773-2.7773 4.3359-6.543 4.3359-10.465zm-88.797 59.199v-0.003906c0-3.9258-1.5586-7.6875-4.332-10.465-2.7773-2.7734-6.543-4.332-10.465-4.332h-88.797c-5.2891 0-10.176 2.8203-12.816 7.3984-2.6445 4.5781-2.6445 10.219 0 14.801 2.6406 4.5781 7.5273 7.3984 12.816 7.3984h88.797c3.9219 0 7.6875-1.5586 10.465-4.3359 2.7734-2.7734 4.332-6.5391 4.332-10.465z" fill="#676767"/>
</svg>
