<?xml version="1.0" encoding="UTF-8"?>
<svg width="752pt" height="752pt" version="1.1" viewBox="0 0 752 752" xmlns="http://www.w3.org/2000/svg">
 <g fill="#676767">
  <path d="m496.77 347.59h-40.254v-47.359c0-43.098-35.047-78.141-78.141-78.141-43.098 0-78.145 35.047-78.145 78.141v47.359h-40.254c-1.4219 0-2.3672 0.94531-2.3672 2.3672v175.23c0 1.4219 0.94531 2.3672 2.3672 2.3672h236.79c1.4219 0 2.3672-0.94531 2.3672-2.3672v-175.23c0.003906-1.418-0.94531-2.3672-2.3633-2.3672zm-118.39-106.55c32.676 0 59.195 26.52 59.195 59.195v47.359h-118.39v-47.359c0-32.676 26.52-59.195 59.199-59.195zm-101.82 267.57v-142.07h203.64v142.07z"/>
  <path d="m378.37 402.05c-14.207 0-26.047 11.84-26.047 26.047 0 10.891 6.6289 20.363 16.574 24.152v30.309c0 1.4219 0.94531 2.3672 2.3672 2.3672h14.207c1.4219 0 2.3672-0.94531 2.3672-2.3672v-30.309c9.9453-3.7891 16.574-13.262 16.574-24.152 0.003907-14.207-11.836-26.047-26.043-26.047zm0 18.945c3.7891 0 7.1055 3.3164 7.1055 7.1055 0 3.7891-3.3164 7.1055-7.1055 7.1055-3.7891-0.003906-7.1055-3.3203-7.1055-7.1094 0-3.7852 3.3164-7.1016 7.1055-7.1016z"/>
 </g>
</svg>
